<mxfile host="Electron" modified="2023-05-09T16:32:17.192Z" agent="Mozilla/5.0 (Windows NT 10.0; Win64; x64) AppleWebKit/537.36 (KHTML, like Gecko) draw.io/21.2.8 Chrome/112.0.5615.165 Electron/24.2.0 Safari/537.36" etag="syGd3Y30BGWowkos41sV" version="21.2.8" type="device">
  <diagram id="C5RBs43oDa-KdzZeNtuy" name="Page-1">
    <mxGraphModel dx="2375" dy="894" grid="1" gridSize="10" guides="1" tooltips="1" connect="1" arrows="1" fold="1" page="1" pageScale="1" pageWidth="827" pageHeight="1169" math="0" shadow="0">
      <root>
        <mxCell id="WIyWlLk6GJQsqaUBKTNV-0" />
        <mxCell id="WIyWlLk6GJQsqaUBKTNV-1" parent="WIyWlLk6GJQsqaUBKTNV-0" />
        <mxCell id="YxoIRfYuSTvwmyHmI72a-3" value="ANIMAL" style="swimlane;" parent="WIyWlLk6GJQsqaUBKTNV-1" vertex="1">
          <mxGeometry x="30" y="50" width="130" height="130" as="geometry">
            <mxRectangle x="60" y="50" width="70" height="23" as="alternateBounds" />
          </mxGeometry>
        </mxCell>
        <mxCell id="YxoIRfYuSTvwmyHmI72a-7" value="&lt;u&gt;ID ANIMAL&lt;/u&gt;&lt;br&gt;NOMBRE&lt;br&gt;ESPECIE&lt;br&gt;EDAD&lt;br&gt;PAIS DE ORIGEN&lt;br&gt;&lt;font color=&quot;#ff0000&quot;&gt;ID HÁBITAT&lt;/font&gt;" style="text;html=1;align=left;verticalAlign=middle;resizable=0;points=[];autosize=1;strokeColor=none;fillColor=none;" parent="YxoIRfYuSTvwmyHmI72a-3" vertex="1">
          <mxGeometry x="10" y="25" width="110" height="90" as="geometry" />
        </mxCell>
        <mxCell id="YxoIRfYuSTvwmyHmI72a-8" value="HÁBITAT" style="swimlane;" parent="WIyWlLk6GJQsqaUBKTNV-1" vertex="1">
          <mxGeometry x="30" y="290" width="150" height="110" as="geometry">
            <mxRectangle x="200" y="50" width="80" height="23" as="alternateBounds" />
          </mxGeometry>
        </mxCell>
        <mxCell id="YxoIRfYuSTvwmyHmI72a-9" value="&lt;u&gt;ID HABITAT&lt;br&gt;&lt;/u&gt;NOMBRE&lt;br&gt;TIPO&lt;br&gt;CAPACIDAD MÁXIMA&lt;br&gt;&lt;font color=&quot;#ff0000&quot;&gt;ID ALIMENTACIÓN&lt;/font&gt;" style="text;html=1;strokeColor=none;fillColor=none;align=left;verticalAlign=middle;whiteSpace=wrap;rounded=0;" parent="YxoIRfYuSTvwmyHmI72a-8" vertex="1">
          <mxGeometry x="10" y="30" width="130" height="80" as="geometry" />
        </mxCell>
        <mxCell id="YxoIRfYuSTvwmyHmI72a-10" value="ALIMENTACIÓN" style="swimlane;" parent="WIyWlLk6GJQsqaUBKTNV-1" vertex="1">
          <mxGeometry x="20" y="550" width="150" height="110" as="geometry">
            <mxRectangle x="400" y="50" width="120" height="23" as="alternateBounds" />
          </mxGeometry>
        </mxCell>
        <mxCell id="YxoIRfYuSTvwmyHmI72a-11" value="&lt;u&gt;ID ALIMENTACIÓN&amp;nbsp;&lt;/u&gt;&lt;br&gt;NOMBRE&lt;br&gt;DESCRIPCIÓN&lt;br&gt;CANTIDAD DIARIA&lt;br&gt;&lt;font color=&quot;#ff0000&quot;&gt;ID EMPLEADO&lt;/font&gt;" style="text;html=1;align=left;verticalAlign=middle;resizable=0;points=[];autosize=1;strokeColor=none;fillColor=none;" parent="YxoIRfYuSTvwmyHmI72a-10" vertex="1">
          <mxGeometry x="10" y="30" width="120" height="80" as="geometry" />
        </mxCell>
        <mxCell id="YxoIRfYuSTvwmyHmI72a-12" value="EMPLEADO" style="swimlane;" parent="WIyWlLk6GJQsqaUBKTNV-1" vertex="1">
          <mxGeometry x="620" y="420" width="150" height="110" as="geometry">
            <mxRectangle x="640" y="50" width="100" height="23" as="alternateBounds" />
          </mxGeometry>
        </mxCell>
        <mxCell id="YxoIRfYuSTvwmyHmI72a-13" value="&lt;u&gt;ID EMPLEADO&lt;/u&gt;&lt;br&gt;NOMBRE&lt;br&gt;EDAD&lt;br&gt;PUESTO&lt;br&gt;SALARIO" style="text;html=1;align=left;verticalAlign=middle;resizable=0;points=[];autosize=1;strokeColor=none;fillColor=none;" parent="YxoIRfYuSTvwmyHmI72a-12" vertex="1">
          <mxGeometry x="20" y="23" width="100" height="80" as="geometry" />
        </mxCell>
        <mxCell id="YxoIRfYuSTvwmyHmI72a-14" value="ESPECTÁCULO" style="swimlane;" parent="WIyWlLk6GJQsqaUBKTNV-1" vertex="1">
          <mxGeometry x="740" y="60" width="150" height="100" as="geometry">
            <mxRectangle x="170" y="250" width="120" height="23" as="alternateBounds" />
          </mxGeometry>
        </mxCell>
        <mxCell id="YxoIRfYuSTvwmyHmI72a-16" value="&lt;u&gt;ID ESPECTÁCULO&lt;/u&gt;&lt;br&gt;NOMBRE&lt;br&gt;DESCRIPCIÓN&lt;br&gt;FECHA Y HORA" style="text;html=1;align=left;verticalAlign=middle;resizable=0;points=[];autosize=1;strokeColor=none;fillColor=none;" parent="YxoIRfYuSTvwmyHmI72a-14" vertex="1">
          <mxGeometry x="10" y="30" width="120" height="60" as="geometry" />
        </mxCell>
        <mxCell id="YxoIRfYuSTvwmyHmI72a-17" value="VISITANTE" style="swimlane;" parent="WIyWlLk6GJQsqaUBKTNV-1" vertex="1">
          <mxGeometry x="630" y="232.5" width="110" height="110" as="geometry" />
        </mxCell>
        <mxCell id="YxoIRfYuSTvwmyHmI72a-18" value="&lt;u&gt;ID VISITANTE&lt;br&gt;&lt;/u&gt;NOMBRE&lt;br&gt;EDAD&lt;br&gt;FECHA VISITA" style="text;html=1;align=left;verticalAlign=middle;resizable=0;points=[];autosize=1;strokeColor=none;fillColor=none;" parent="YxoIRfYuSTvwmyHmI72a-17" vertex="1">
          <mxGeometry y="30" width="100" height="60" as="geometry" />
        </mxCell>
        <mxCell id="QRqg9A9jOqrJQZnfzdPT-1" value="ESPECTÁCULO_ANIMAL" style="swimlane;" parent="WIyWlLk6GJQsqaUBKTNV-1" vertex="1">
          <mxGeometry x="280" y="40" width="180" height="90" as="geometry" />
        </mxCell>
        <mxCell id="QRqg9A9jOqrJQZnfzdPT-4" value="&lt;font color=&quot;#ff0000&quot;&gt;ID ANIMAL&lt;br&gt;ID ESPECTÁCULO&lt;/font&gt;" style="text;html=1;align=left;verticalAlign=middle;resizable=0;points=[];autosize=1;strokeColor=none;fillColor=none;" parent="QRqg9A9jOqrJQZnfzdPT-1" vertex="1">
          <mxGeometry y="35" width="120" height="30" as="geometry" />
        </mxCell>
        <mxCell id="QRqg9A9jOqrJQZnfzdPT-7" value="" style="endArrow=classic;html=1;rounded=0;edgeStyle=orthogonalEdgeStyle;entryX=-0.033;entryY=0.267;entryDx=0;entryDy=0;entryPerimeter=0;" parent="WIyWlLk6GJQsqaUBKTNV-1" target="QRqg9A9jOqrJQZnfzdPT-4" edge="1">
          <mxGeometry width="50" height="50" relative="1" as="geometry">
            <mxPoint x="160" y="90" as="sourcePoint" />
            <mxPoint x="210" y="40" as="targetPoint" />
          </mxGeometry>
        </mxCell>
        <mxCell id="QRqg9A9jOqrJQZnfzdPT-10" style="edgeStyle=orthogonalEdgeStyle;rounded=0;orthogonalLoop=1;jettySize=auto;html=1;" parent="WIyWlLk6GJQsqaUBKTNV-1" edge="1">
          <mxGeometry relative="1" as="geometry">
            <mxPoint x="30" y="330" as="sourcePoint" />
            <Array as="points">
              <mxPoint x="-80" y="330" />
              <mxPoint x="-80" y="160" />
            </Array>
            <mxPoint x="30" y="160" as="targetPoint" />
          </mxGeometry>
        </mxCell>
        <mxCell id="QRqg9A9jOqrJQZnfzdPT-11" value="" style="endArrow=classic;html=1;rounded=0;edgeStyle=orthogonalEdgeStyle;" parent="WIyWlLk6GJQsqaUBKTNV-1" edge="1">
          <mxGeometry width="50" height="50" relative="1" as="geometry">
            <mxPoint x="10" y="595" as="sourcePoint" />
            <mxPoint x="30" y="390" as="targetPoint" />
            <Array as="points">
              <mxPoint x="-70" y="595" />
              <mxPoint x="-70" y="390" />
            </Array>
          </mxGeometry>
        </mxCell>
        <mxCell id="QRqg9A9jOqrJQZnfzdPT-12" value="VISITANTE_HÁBITAT" style="swimlane;" parent="WIyWlLk6GJQsqaUBKTNV-1" vertex="1">
          <mxGeometry x="324" y="250" width="166" height="70" as="geometry" />
        </mxCell>
        <mxCell id="QRqg9A9jOqrJQZnfzdPT-13" value="&lt;font color=&quot;#ff0000&quot;&gt;ID VISITANTE&lt;br&gt;ID HÁBITAT&lt;/font&gt;" style="text;html=1;align=left;verticalAlign=middle;resizable=0;points=[];autosize=1;strokeColor=none;fillColor=none;" parent="QRqg9A9jOqrJQZnfzdPT-12" vertex="1">
          <mxGeometry x="15" y="30" width="90" height="30" as="geometry" />
        </mxCell>
        <mxCell id="QRqg9A9jOqrJQZnfzdPT-14" value="" style="endArrow=classic;html=1;rounded=0;edgeStyle=orthogonalEdgeStyle;entryX=0;entryY=0.75;entryDx=0;entryDy=0;" parent="WIyWlLk6GJQsqaUBKTNV-1" target="QRqg9A9jOqrJQZnfzdPT-12" edge="1">
          <mxGeometry width="50" height="50" relative="1" as="geometry">
            <mxPoint x="180" y="320" as="sourcePoint" />
            <mxPoint x="230" y="270" as="targetPoint" />
            <Array as="points">
              <mxPoint x="180" y="321" />
              <mxPoint x="253" y="321" />
              <mxPoint x="253" y="303" />
            </Array>
          </mxGeometry>
        </mxCell>
        <mxCell id="QRqg9A9jOqrJQZnfzdPT-15" value="" style="endArrow=classic;html=1;rounded=0;edgeStyle=orthogonalEdgeStyle;exitX=-0.03;exitY=0.225;exitDx=0;exitDy=0;exitPerimeter=0;entryX=1;entryY=0.5;entryDx=0;entryDy=0;" parent="WIyWlLk6GJQsqaUBKTNV-1" source="YxoIRfYuSTvwmyHmI72a-18" target="QRqg9A9jOqrJQZnfzdPT-12" edge="1">
          <mxGeometry width="50" height="50" relative="1" as="geometry">
            <mxPoint x="670" y="420" as="sourcePoint" />
            <mxPoint x="720" y="370" as="targetPoint" />
          </mxGeometry>
        </mxCell>
        <mxCell id="QRqg9A9jOqrJQZnfzdPT-16" value="EMPLEADO_HÁBITAT" style="swimlane;" parent="WIyWlLk6GJQsqaUBKTNV-1" vertex="1">
          <mxGeometry x="360" y="420" width="150" height="60" as="geometry" />
        </mxCell>
        <mxCell id="QRqg9A9jOqrJQZnfzdPT-17" value="&lt;font color=&quot;#ff0000&quot;&gt;ID EMPLEADO&lt;br&gt;ID HÁBITAT&lt;/font&gt;" style="text;html=1;align=left;verticalAlign=middle;resizable=0;points=[];autosize=1;strokeColor=none;fillColor=none;" parent="WIyWlLk6GJQsqaUBKTNV-1" vertex="1">
          <mxGeometry x="360" y="445" width="100" height="30" as="geometry" />
        </mxCell>
        <mxCell id="QRqg9A9jOqrJQZnfzdPT-18" value="" style="endArrow=classic;html=1;rounded=0;edgeStyle=orthogonalEdgeStyle;entryX=-0.01;entryY=0.9;entryDx=0;entryDy=0;entryPerimeter=0;" parent="WIyWlLk6GJQsqaUBKTNV-1" target="QRqg9A9jOqrJQZnfzdPT-17" edge="1">
          <mxGeometry width="50" height="50" relative="1" as="geometry">
            <mxPoint x="180" y="330" as="sourcePoint" />
            <mxPoint x="720" y="360" as="targetPoint" />
            <Array as="points">
              <mxPoint x="180" y="331" />
              <mxPoint x="271" y="331" />
              <mxPoint x="271" y="472" />
            </Array>
          </mxGeometry>
        </mxCell>
        <mxCell id="QRqg9A9jOqrJQZnfzdPT-19" value="" style="endArrow=classic;html=1;rounded=0;edgeStyle=orthogonalEdgeStyle;entryX=1;entryY=0.5;entryDx=0;entryDy=0;" parent="WIyWlLk6GJQsqaUBKTNV-1" target="QRqg9A9jOqrJQZnfzdPT-16" edge="1">
          <mxGeometry width="50" height="50" relative="1" as="geometry">
            <mxPoint x="620" y="470" as="sourcePoint" />
            <mxPoint x="720" y="360" as="targetPoint" />
            <Array as="points">
              <mxPoint x="620" y="450" />
            </Array>
          </mxGeometry>
        </mxCell>
        <mxCell id="QRqg9A9jOqrJQZnfzdPT-21" value="" style="endArrow=classic;html=1;rounded=0;edgeStyle=orthogonalEdgeStyle;exitX=0;exitY=0.25;exitDx=0;exitDy=0;" parent="WIyWlLk6GJQsqaUBKTNV-1" source="YxoIRfYuSTvwmyHmI72a-12" edge="1">
          <mxGeometry width="50" height="50" relative="1" as="geometry">
            <mxPoint x="670" y="400" as="sourcePoint" />
            <mxPoint x="170" y="650" as="targetPoint" />
            <Array as="points">
              <mxPoint x="620" y="458" />
              <mxPoint x="560" y="458" />
              <mxPoint x="560" y="650" />
            </Array>
          </mxGeometry>
        </mxCell>
        <mxCell id="QRqg9A9jOqrJQZnfzdPT-22" value="VETERINARIO" style="swimlane;" parent="WIyWlLk6GJQsqaUBKTNV-1" vertex="1">
          <mxGeometry x="380" y="730" width="140" height="80" as="geometry" />
        </mxCell>
        <mxCell id="QRqg9A9jOqrJQZnfzdPT-23" value="&lt;font color=&quot;#ff0000&quot;&gt;ID EMPLEADO&lt;/font&gt;&lt;br&gt;ESPECIALIDAD&lt;br&gt;TELÉFONO" style="text;html=1;align=left;verticalAlign=middle;resizable=0;points=[];autosize=1;strokeColor=none;fillColor=none;" parent="QRqg9A9jOqrJQZnfzdPT-22" vertex="1">
          <mxGeometry x="10" y="30" width="100" height="50" as="geometry" />
        </mxCell>
        <mxCell id="QRqg9A9jOqrJQZnfzdPT-24" value="CUIDADOR" style="swimlane;" parent="WIyWlLk6GJQsqaUBKTNV-1" vertex="1">
          <mxGeometry x="590" y="730" width="160" height="80" as="geometry" />
        </mxCell>
        <mxCell id="QRqg9A9jOqrJQZnfzdPT-25" value="&lt;font color=&quot;#ff0000&quot;&gt;ID EMPLEADO&lt;br&gt;&lt;/font&gt;LISTA ESPECIES&lt;br&gt;TÍTULO" style="text;html=1;align=left;verticalAlign=middle;resizable=0;points=[];autosize=1;strokeColor=none;fillColor=none;" parent="QRqg9A9jOqrJQZnfzdPT-24" vertex="1">
          <mxGeometry x="10" y="30" width="110" height="50" as="geometry" />
        </mxCell>
        <mxCell id="QRqg9A9jOqrJQZnfzdPT-26" value="lIMPIADOR" style="swimlane;" parent="WIyWlLk6GJQsqaUBKTNV-1" vertex="1">
          <mxGeometry x="840" y="735" width="140" height="70" as="geometry" />
        </mxCell>
        <mxCell id="QRqg9A9jOqrJQZnfzdPT-27" value="&lt;font color=&quot;#ff0000&quot;&gt;ID EMPLEADO&lt;/font&gt;&lt;br&gt;ZONA LIMPIEZA" style="text;html=1;align=left;verticalAlign=middle;resizable=0;points=[];autosize=1;strokeColor=none;fillColor=none;" parent="QRqg9A9jOqrJQZnfzdPT-26" vertex="1">
          <mxGeometry x="20" y="30" width="110" height="30" as="geometry" />
        </mxCell>
        <mxCell id="QRqg9A9jOqrJQZnfzdPT-28" value="" style="endArrow=classic;html=1;rounded=0;edgeStyle=orthogonalEdgeStyle;entryX=1;entryY=0.5;entryDx=0;entryDy=0;" parent="WIyWlLk6GJQsqaUBKTNV-1" target="QRqg9A9jOqrJQZnfzdPT-24" edge="1">
          <mxGeometry width="50" height="50" relative="1" as="geometry">
            <mxPoint x="770" y="450" as="sourcePoint" />
            <mxPoint x="770" y="770" as="targetPoint" />
            <Array as="points">
              <mxPoint x="820" y="450" />
              <mxPoint x="820" y="770" />
            </Array>
          </mxGeometry>
        </mxCell>
        <mxCell id="QRqg9A9jOqrJQZnfzdPT-29" value="" style="endArrow=classic;html=1;rounded=0;edgeStyle=orthogonalEdgeStyle;entryX=1;entryY=0.5;entryDx=0;entryDy=0;" parent="WIyWlLk6GJQsqaUBKTNV-1" target="QRqg9A9jOqrJQZnfzdPT-22" edge="1">
          <mxGeometry width="50" height="50" relative="1" as="geometry">
            <mxPoint x="770" y="460" as="sourcePoint" />
            <mxPoint x="550" y="770" as="targetPoint" />
            <Array as="points">
              <mxPoint x="770" y="470" />
              <mxPoint x="800" y="470" />
              <mxPoint x="800" y="680" />
              <mxPoint x="550" y="680" />
              <mxPoint x="550" y="770" />
            </Array>
          </mxGeometry>
        </mxCell>
        <mxCell id="yZC2umSuBpfr5fnYKwLb-0" value="" style="endArrow=classic;html=1;rounded=0;edgeStyle=orthogonalEdgeStyle;" edge="1" parent="WIyWlLk6GJQsqaUBKTNV-1">
          <mxGeometry width="50" height="50" relative="1" as="geometry">
            <mxPoint x="770" y="449" as="sourcePoint" />
            <mxPoint x="990" y="766" as="targetPoint" />
            <Array as="points">
              <mxPoint x="770" y="430" />
              <mxPoint x="1110" y="430" />
              <mxPoint x="1110" y="766" />
            </Array>
          </mxGeometry>
        </mxCell>
        <mxCell id="yZC2umSuBpfr5fnYKwLb-1" value="8" style="text;html=1;strokeColor=none;fillColor=none;align=center;verticalAlign=middle;whiteSpace=wrap;rounded=0;rotation=90;" vertex="1" parent="WIyWlLk6GJQsqaUBKTNV-1">
          <mxGeometry x="250" y="50" width="20" height="30" as="geometry" />
        </mxCell>
        <mxCell id="yZC2umSuBpfr5fnYKwLb-2" value="8" style="text;html=1;strokeColor=none;fillColor=none;align=center;verticalAlign=middle;whiteSpace=wrap;rounded=0;rotation=90;" vertex="1" parent="WIyWlLk6GJQsqaUBKTNV-1">
          <mxGeometry x="330" y="450" width="20" height="30" as="geometry" />
        </mxCell>
        <mxCell id="yZC2umSuBpfr5fnYKwLb-3" value="8" style="text;html=1;strokeColor=none;fillColor=none;align=center;verticalAlign=middle;whiteSpace=wrap;rounded=0;rotation=90;" vertex="1" parent="WIyWlLk6GJQsqaUBKTNV-1">
          <mxGeometry x="180" y="327.5" width="20" height="30" as="geometry" />
        </mxCell>
        <mxCell id="yZC2umSuBpfr5fnYKwLb-4" value="8" style="text;html=1;strokeColor=none;fillColor=none;align=center;verticalAlign=middle;whiteSpace=wrap;rounded=0;rotation=90;" vertex="1" parent="WIyWlLk6GJQsqaUBKTNV-1">
          <mxGeometry x="600" y="430" width="20" height="30" as="geometry" />
        </mxCell>
        <mxCell id="yZC2umSuBpfr5fnYKwLb-5" value="8" style="text;html=1;strokeColor=none;fillColor=none;align=center;verticalAlign=middle;whiteSpace=wrap;rounded=0;rotation=90;" vertex="1" parent="WIyWlLk6GJQsqaUBKTNV-1">
          <mxGeometry x="610" y="250" width="20" height="30" as="geometry" />
        </mxCell>
        <mxCell id="yZC2umSuBpfr5fnYKwLb-6" value="8" style="text;html=1;strokeColor=none;fillColor=none;align=center;verticalAlign=middle;whiteSpace=wrap;rounded=0;rotation=90;" vertex="1" parent="WIyWlLk6GJQsqaUBKTNV-1">
          <mxGeometry x="290" y="280" width="20" height="30" as="geometry" />
        </mxCell>
        <mxCell id="yZC2umSuBpfr5fnYKwLb-7" value="8" style="text;html=1;strokeColor=none;fillColor=none;align=center;verticalAlign=middle;whiteSpace=wrap;rounded=0;rotation=90;" vertex="1" parent="WIyWlLk6GJQsqaUBKTNV-1">
          <mxGeometry x="180" y="297.5" width="20" height="30" as="geometry" />
        </mxCell>
        <mxCell id="yZC2umSuBpfr5fnYKwLb-8" value="8" style="text;html=1;strokeColor=none;fillColor=none;align=center;verticalAlign=middle;whiteSpace=wrap;rounded=0;rotation=90;" vertex="1" parent="WIyWlLk6GJQsqaUBKTNV-1">
          <mxGeometry x="500" y="260" width="20" height="30" as="geometry" />
        </mxCell>
        <mxCell id="yZC2umSuBpfr5fnYKwLb-9" value="8" style="text;html=1;strokeColor=none;fillColor=none;align=center;verticalAlign=middle;whiteSpace=wrap;rounded=0;rotation=90;" vertex="1" parent="WIyWlLk6GJQsqaUBKTNV-1">
          <mxGeometry y="140" width="20" height="30" as="geometry" />
        </mxCell>
        <mxCell id="yZC2umSuBpfr5fnYKwLb-10" value="8" style="text;html=1;strokeColor=none;fillColor=none;align=center;verticalAlign=middle;whiteSpace=wrap;rounded=0;rotation=90;" vertex="1" parent="WIyWlLk6GJQsqaUBKTNV-1">
          <mxGeometry x="490" y="70" width="20" height="30" as="geometry" />
        </mxCell>
        <mxCell id="yZC2umSuBpfr5fnYKwLb-11" value="8" style="text;html=1;strokeColor=none;fillColor=none;align=center;verticalAlign=middle;whiteSpace=wrap;rounded=0;rotation=90;" vertex="1" parent="WIyWlLk6GJQsqaUBKTNV-1">
          <mxGeometry x="160" y="70" width="20" height="30" as="geometry" />
        </mxCell>
        <mxCell id="yZC2umSuBpfr5fnYKwLb-12" value="8" style="text;html=1;strokeColor=none;fillColor=none;align=center;verticalAlign=middle;whiteSpace=wrap;rounded=0;rotation=90;" vertex="1" parent="WIyWlLk6GJQsqaUBKTNV-1">
          <mxGeometry x="720" y="80" width="20" height="30" as="geometry" />
        </mxCell>
        <mxCell id="yZC2umSuBpfr5fnYKwLb-18" value="" style="endArrow=classic;html=1;rounded=0;" edge="1" parent="WIyWlLk6GJQsqaUBKTNV-1">
          <mxGeometry width="50" height="50" relative="1" as="geometry">
            <mxPoint x="740" y="100" as="sourcePoint" />
            <mxPoint x="470" y="100" as="targetPoint" />
          </mxGeometry>
        </mxCell>
        <mxCell id="yZC2umSuBpfr5fnYKwLb-19" value="1" style="text;html=1;strokeColor=none;fillColor=none;align=center;verticalAlign=middle;whiteSpace=wrap;rounded=0;" vertex="1" parent="WIyWlLk6GJQsqaUBKTNV-1">
          <mxGeometry x="-5" y="310" width="30" height="17.5" as="geometry" />
        </mxCell>
        <mxCell id="yZC2umSuBpfr5fnYKwLb-21" value="1" style="text;html=1;strokeColor=none;fillColor=none;align=center;verticalAlign=middle;whiteSpace=wrap;rounded=0;" vertex="1" parent="WIyWlLk6GJQsqaUBKTNV-1">
          <mxGeometry x="-20" y="575" width="30" height="17.5" as="geometry" />
        </mxCell>
        <mxCell id="yZC2umSuBpfr5fnYKwLb-23" value="8" style="text;html=1;strokeColor=none;fillColor=none;align=center;verticalAlign=middle;whiteSpace=wrap;rounded=0;rotation=90;" vertex="1" parent="WIyWlLk6GJQsqaUBKTNV-1">
          <mxGeometry x="180" y="630" width="20" height="30" as="geometry" />
        </mxCell>
        <mxCell id="yZC2umSuBpfr5fnYKwLb-24" value="8" style="text;html=1;strokeColor=none;fillColor=none;align=center;verticalAlign=middle;whiteSpace=wrap;rounded=0;rotation=90;" vertex="1" parent="WIyWlLk6GJQsqaUBKTNV-1">
          <mxGeometry x="520" y="430" width="20" height="30" as="geometry" />
        </mxCell>
        <mxCell id="yZC2umSuBpfr5fnYKwLb-25" value="8" style="text;html=1;strokeColor=none;fillColor=none;align=center;verticalAlign=middle;whiteSpace=wrap;rounded=0;rotation=90;" vertex="1" parent="WIyWlLk6GJQsqaUBKTNV-1">
          <mxGeometry y="370" width="20" height="30" as="geometry" />
        </mxCell>
        <mxCell id="yZC2umSuBpfr5fnYKwLb-28" value="1" style="text;html=1;strokeColor=none;fillColor=none;align=center;verticalAlign=middle;whiteSpace=wrap;rounded=0;" vertex="1" parent="WIyWlLk6GJQsqaUBKTNV-1">
          <mxGeometry x="595" y="457.5" width="30" height="17.5" as="geometry" />
        </mxCell>
        <mxCell id="yZC2umSuBpfr5fnYKwLb-29" value="1" style="text;html=1;strokeColor=none;fillColor=none;align=center;verticalAlign=middle;whiteSpace=wrap;rounded=0;" vertex="1" parent="WIyWlLk6GJQsqaUBKTNV-1">
          <mxGeometry x="770" y="432.5" width="30" height="17.5" as="geometry" />
        </mxCell>
        <mxCell id="yZC2umSuBpfr5fnYKwLb-30" value="1" style="text;html=1;strokeColor=none;fillColor=none;align=center;verticalAlign=middle;whiteSpace=wrap;rounded=0;" vertex="1" parent="WIyWlLk6GJQsqaUBKTNV-1">
          <mxGeometry x="770" y="451.25" width="30" height="17.5" as="geometry" />
        </mxCell>
        <mxCell id="yZC2umSuBpfr5fnYKwLb-31" value="1" style="text;html=1;strokeColor=none;fillColor=none;align=center;verticalAlign=middle;whiteSpace=wrap;rounded=0;" vertex="1" parent="WIyWlLk6GJQsqaUBKTNV-1">
          <mxGeometry x="770" y="412.5" width="30" height="17.5" as="geometry" />
        </mxCell>
        <mxCell id="yZC2umSuBpfr5fnYKwLb-32" value="1" style="text;html=1;strokeColor=none;fillColor=none;align=center;verticalAlign=middle;whiteSpace=wrap;rounded=0;" vertex="1" parent="WIyWlLk6GJQsqaUBKTNV-1">
          <mxGeometry x="1000" y="740" width="30" height="17.5" as="geometry" />
        </mxCell>
        <mxCell id="yZC2umSuBpfr5fnYKwLb-33" value="1" style="text;html=1;strokeColor=none;fillColor=none;align=center;verticalAlign=middle;whiteSpace=wrap;rounded=0;" vertex="1" parent="WIyWlLk6GJQsqaUBKTNV-1">
          <mxGeometry x="750" y="750" width="30" height="17.5" as="geometry" />
        </mxCell>
        <mxCell id="yZC2umSuBpfr5fnYKwLb-34" value="1" style="text;html=1;strokeColor=none;fillColor=none;align=center;verticalAlign=middle;whiteSpace=wrap;rounded=0;" vertex="1" parent="WIyWlLk6GJQsqaUBKTNV-1">
          <mxGeometry x="520" y="750" width="30" height="17.5" as="geometry" />
        </mxCell>
      </root>
    </mxGraphModel>
  </diagram>
</mxfile>
